<?xml version="1.0" encoding="utf-8"?>
<!-- Generator: Adobe Illustrator 23.0.3, SVG Export Plug-In . SVG Version: 6.00 Build 0)  -->
<svg version="1.1" id="Layer_1" xmlns="http://www.w3.org/2000/svg" xmlns:xlink="http://www.w3.org/1999/xlink" x="0px" y="0px"
	 width="1056.1px" height="456px" viewBox="0 0 1056.1 456" style="enable-background:new 0 0 1056.1 456;" xml:space="preserve">
<style type="text/css">
	.st0{fill:#F9F9F9;stroke:#49556F;stroke-width:5;stroke-miterlimit:10;}
	.st1{fill:none;}
	.st2{fill:#49556F;}
	.st3{font-family:'OpenSansCondensed-Light';}
	.st4{font-size:61px;}
	.st5{clip-path:url(#SVGID_2_);}
	.st6{fill:none;stroke:#49556F;stroke-width:4;stroke-miterlimit:10;}
</style>
<path class="st0" d="M1041.6,453.5h-982c-6.6,0-12-5.4-12-12v-427c0-6.6,5.4-12,12-12h982c6.6,0,12,5.4,12,12v427
	C1053.6,448.1,1048.2,453.5,1041.6,453.5z"/>
<rect x="458" y="91.5" class="st1" width="560" height="273"/>
<text transform="matrix(1 0 0 1 504.0225 137.8599)"><tspan x="0" y="0" class="st2 st3 st4">The blue dots represent </tspan><tspan x="-31.5" y="73.2" class="st2 st3 st4">each location where one of </tspan><tspan x="-30.3" y="146.4" class="st2 st3 st4">15 grey seals was recorded </tspan><tspan x="-26.5" y="219.6" class="st2 st3 st4">over a period of 6 months.</tspan></text>
<g>
	<defs>
		<circle id="SVGID_1_" cx="264.5" cy="228" r="148.5"/>
	</defs>
	<clipPath id="SVGID_2_">
		<use xlink:href="#SVGID_1_"  style="overflow:visible;"/>
	</clipPath>
	<g class="st5">
		<g>
			
				<image style="overflow:visible;enable-background:new    ;" width="220" height="160" xlink:href="1ACE0964.png"  transform="matrix(1.8074 0 0 1.9757 54.603 66.385)">
			</image>
		</g>
	</g>
</g>
<circle class="st6" cx="264.5" cy="228" r="148.5"/>
</svg>
