<?xml version="1.0" encoding="utf-8"?>
<!-- Generator: Adobe Illustrator 23.1.0, SVG Export Plug-In . SVG Version: 6.00 Build 0)  -->
<svg version="1.1" id="Layer_1" xmlns="http://www.w3.org/2000/svg" xmlns:xlink="http://www.w3.org/1999/xlink" x="0px" y="0px"
	 viewBox="0 0 1024 768" style="enable-background:new 0 0 1024 768;" xml:space="preserve">
<style type="text/css">
	.st0{fill:#F9F9F9;stroke:#050000;stroke-width:5;stroke-miterlimit:10;}
	.st1{fill:none;}
	.st2{font-family:'MyriadPro-Regular';}
	.st3{font-size:60.7115px;}
	.st4{fill:none;stroke:#050000;stroke-width:5;stroke-miterlimit:10;}
</style>
<g>
	<path class="st0" d="M18,39h982c6.6,0,12,5.4,12,12v427c0,6.6-5.4,12-12,12H18c-6.6,0-12-5.4-12-12V51C6,44.4,11.4,39,18,39z"/>
	<g>
		<defs>
			<ellipse id="SVGID_1_" cx="212.3" cy="264.5" rx="142.8" ry="156.1"/>
		</defs>
		<clipPath id="SVGID_2_">
			<use xlink:href="#SVGID_1_"  style="overflow:visible;"/>
		</clipPath>
		<g style="clip-path:url(#SVGID_2_);">
			
				<image style="overflow:visible;" width="220" height="160" xlink:href="../../../../../Pictures/dots.PNG"  transform="matrix(2.308 0 0 2.5231 -41.6025 80.6424)">
			</image>
		</g>
	</g>
	<rect x="418.6" y="108.4" class="st1" width="555.4" height="336.5"/>
	<text transform="matrix(0.9148 0 0 1 421.5034 151.4893)"><tspan x="0" y="0" class="st2 st3">The blue dots represent </tspan><tspan x="17.7" y="72.9" class="st2 st3">each location that one </tspan><tspan x="51.5" y="145.7" class="st2 st3">of 15 grey seals was </tspan><tspan x="48.5" y="218.6" class="st2 st3">recorded at over a 6 </tspan><tspan x="118.6" y="291.4" class="st2 st3">month period. </tspan></text>
	<ellipse class="st4" cx="212.3" cy="264.5" rx="142.8" ry="156.1"/>
</g>
</svg>
